<?xml version="1.0" standalone="no"?>
<!DOCTYPE svg PUBLIC "-//W3C//DTD SVG 20010904//EN"
 "http://www.w3.org/TR/2001/REC-SVG-20010904/DTD/svg10.dtd">
<svg version="1.0" xmlns="http://www.w3.org/2000/svg"
 width="254.000000pt" height="254.000000pt" viewBox="0 0 254.000000 254.000000"
 preserveAspectRatio="xMidYMid meet">
<metadata>
Created by potrace 1.11, written by Peter Selinger 2001-2013
</metadata>
<g transform="translate(0.000000,254.000000) scale(0.100000,-0.100000)"
fill="#000000" stroke="none">
<path d="M433 2520 c1 -11 7 -20 13 -20 7 0 10 8 7 20 -3 11 -9 20 -14 20 -4
0 -7 -9 -6 -20z"/>
<path d="M547 2533 c-13 -12 -7 -40 13 -63 14 -17 17 -27 10 -41 -12 -22 -13
-39 -1 -39 5 0 14 14 20 30 9 26 7 34 -9 50 -20 20 -28 56 -10 45 6 -3 10 1
10 9 0 16 -21 22 -33 9z"/>
<path d="M644 2528 c-4 -6 -2 -14 4 -16 15 -5 4 -83 -12 -94 -7 -5 -6 -8 3 -8
11 0 11 -3 1 -15 -11 -13 -14 -13 -27 2 -13 16 -13 16 -4 -4 13 -26 -5 -77
-25 -69 -8 3 -13 -10 -16 -38 -2 -30 1 -42 8 -39 7 2 9 14 6 25 -3 14 -1 19 6
14 7 -4 12 -16 12 -26 0 -10 6 -25 13 -32 47 -51 50 -57 37 -73 -7 -9 -8 -15
-2 -15 6 0 12 6 15 13 6 18 17 4 19 -26 2 -19 6 -24 18 -17 10 5 28 -3 59 -30
32 -28 38 -38 25 -37 -37 0 -44 -3 -40 -20 6 -33 18 -53 32 -53 17 0 18 17 2
23 -10 4 -10 6 0 6 6 1 12 8 12 16 0 19 30 20 54 2 17 -13 18 -14 2 -20 -10
-4 -14 -12 -10 -18 4 -8 0 -9 -15 -4 -15 4 -21 2 -21 -8 0 -19 -36 -51 -44
-39 -3 5 4 12 16 15 12 4 19 9 15 13 -3 4 -18 -1 -31 -10 -15 -9 -27 -12 -31
-6 -3 6 -1 10 5 10 6 0 10 7 8 16 -2 8 -6 14 -9 12 -3 -2 -14 4 -24 12 -11 8
-16 10 -12 3 4 -6 3 -14 -2 -17 -5 -3 -27 12 -49 34 -22 22 -44 40 -49 40 -5
0 -14 10 -19 23 -6 12 -9 16 -7 9 2 -9 -2 -10 -16 -2 -11 5 -18 18 -17 27 2
10 1 12 -1 5 -5 -15 -1 -17 -75 26 -32 19 -58 38 -58 44 0 5 -4 6 -10 3 -5 -3
-10 -2 -10 3 0 6 -9 8 -20 5 -15 -4 -20 0 -20 15 0 23 -19 41 -21 20 -1 -7 -1
-15 -1 -19 0 -3 -15 -6 -34 -6 -23 -1 -37 4 -41 14 -6 14 -8 14 -18 0 -7 -9
-21 -18 -32 -20 -33 -5 -69 -34 -83 -67 -18 -42 -35 -32 -35 21 0 34 3 43 15
41 11 -3 12 0 4 8 -6 6 -18 8 -26 5 -19 -8 -29 -50 -15 -64 12 -12 1 -45 -12
-37 -11 7 -22 -31 -14 -50 10 -25 25 -15 19 14 -3 15 -3 22 0 15 3 -7 11 -10
19 -7 10 4 12 -3 8 -30 -3 -28 -1 -35 9 -31 8 3 18 -6 25 -25 7 -20 8 -28 1
-24 -6 4 -8 1 -6 -7 3 -8 11 -13 17 -11 6 1 11 -5 11 -15 0 -9 3 -13 7 -10 11
11 32 -13 26 -30 -5 -12 -7 -12 -14 -1 -7 10 -9 9 -9 -3 0 -10 11 -20 26 -23
l26 -7 -21 -18 c-25 -22 -27 -31 -6 -31 8 0 15 5 15 11 0 8 4 8 13 0 15 -12
37 3 37 26 0 19 4 17 63 -22 49 -32 53 -38 49 -67 -3 -22 -1 -29 7 -23 7 4 10
13 7 21 -10 27 13 24 47 -6 19 -16 37 -27 40 -23 10 10 35 -16 33 -34 -3 -19
-26 -31 -26 -13 0 6 -5 8 -10 5 -6 -3 -10 2 -10 12 0 20 -18 43 -33 43 -4 0
-5 -6 0 -12 7 -13 9 -18 11 -50 1 -10 5 -17 10 -17 21 4 42 -2 42 -12 0 -5 -6
-7 -12 -4 -7 4 -5 0 4 -8 16 -12 16 -16 3 -33 -15 -18 -15 -18 -8 0 4 14 2 17
-8 14 -8 -3 -13 -11 -12 -17 4 -15 -64 -14 -70 2 -4 10 -6 10 -6 0 -1 -7 -8
-13 -16 -13 -19 0 -19 2 0 47 8 20 13 38 10 41 -3 3 -5 0 -5 -6 0 -7 -3 -11
-7 -11 -5 1 -15 1 -23 0 -13 -1 -13 -3 -1 -10 12 -8 12 -12 -2 -26 -10 -9 -15
-21 -12 -26 4 -5 -14 -9 -40 -9 -37 0 -45 3 -43 16 2 10 -3 19 -9 21 -8 3 -13
-4 -13 -15 0 -16 -8 -19 -49 -21 -49 -1 -50 -1 -54 31 l-4 33 -1 -32 c-2 -31
-4 -33 -42 -33 l-40 0 0 -795 0 -795 430 0 430 0 1 103 c1 148 12 283 29 364
l11 51 32 -9 c41 -12 164 -12 152 0 -6 5 -28 14 -50 21 -126 39 -331 179 -405
277 -152 204 -194 522 -96 728 36 74 90 140 191 228 249 220 434 290 770 288
198 -1 304 -22 440 -90 261 -129 424 -388 401 -635 -10 -109 -88 -317 -128
-342 -5 -3 -18 2 -28 11 -26 23 -102 22 -143 -3 -18 -10 -42 -34 -55 -53 -21
-30 -23 -41 -17 -99 l6 -66 -63 -50 c-84 -68 -139 -99 -239 -134 l-84 -30 95
4 c52 2 102 7 110 10 12 5 24 -11 50 -64 49 -102 106 -150 178 -150 41 0 89
34 112 80 19 37 20 48 10 92 -6 28 -30 86 -54 128 -66 118 -80 160 -72 224 6
47 11 56 36 66 84 35 154 -36 218 -220 47 -135 54 -173 54 -284 1 -70 -3 -90
-28 -140 -51 -105 -132 -156 -245 -156 -129 1 -213 87 -250 255 -20 91 -27 43
-28 -197 l-1 -208 385 0 385 0 0 795 c0 629 -3 795 -12 796 -7 1 -23 0 -35 -1
-17 -1 -23 4 -23 20 0 12 -4 19 -10 15 -5 -3 -7 -12 -3 -20 6 -18 -13 -20 -20
-2 -4 9 -8 8 -16 -3 -13 -19 -13 -19 -60 75 -27 55 -37 83 -30 91 7 8 6 15 -1
19 -6 4 -9 13 -6 21 3 7 1 16 -4 19 -4 3 -7 -6 -5 -20 4 -40 -10 -38 -43 8
-20 29 -28 48 -22 57 10 16 3 33 -11 24 -5 -3 -6 -10 -3 -16 4 -6 1 -9 -7 -6
-8 3 -15 11 -15 19 -3 31 -5 34 -12 22 -5 -8 -23 2 -56 30 -44 38 -47 44 -32
56 14 12 16 12 11 -2 -4 -8 -2 -18 3 -21 16 -10 22 22 7 34 -12 10 -12 15 1
36 9 13 20 21 25 18 5 -3 9 -1 9 5 0 5 -6 11 -12 14 -10 4 -10 7 0 18 14 15
16 29 3 29 -5 0 -12 -10 -16 -22 -6 -21 -8 -19 -17 15 -12 44 3 71 34 62 10
-4 33 2 51 13 17 11 38 17 45 15 6 -3 12 -1 13 4 4 44 7 55 19 66 10 10 12 8
7 -6 -7 -20 8 -57 23 -57 5 0 7 6 4 14 -3 7 2 29 10 47 l14 34 1 -29 c1 -23 4
-27 19 -21 12 4 11 1 -6 -15 -29 -27 -29 -60 -1 -60 15 0 19 -4 15 -16 -7 -18
14 -74 27 -74 4 0 5 15 2 34 -5 22 -1 44 9 64 10 19 12 33 6 37 -6 3 -10 10
-10 16 0 13 28 11 32 -3 6 -18 30 2 25 21 -3 11 2 17 14 18 14 1 19 -5 19 -25
l0 -26 20 22 c20 21 27 37 13 29 -5 -3 -14 1 -21 9 -11 12 -9 14 7 14 19 0 20
6 19 115 l-1 115 -52 0 c-47 0 -52 -2 -62 -27 l-11 -28 -1 28 -1 27 -125 0
c-81 0 -125 -4 -125 -11 0 -5 4 -8 9 -5 4 3 8 -8 7 -24 -1 -34 -12 -39 -21
-10 -9 28 -26 14 -19 -14 5 -20 1 -24 -25 -28 -27 -4 -31 -2 -31 18 0 17 -4
22 -15 18 -8 -4 -15 -1 -15 5 0 6 7 11 15 11 8 0 19 9 25 20 9 17 8 20 -10 20
-11 0 -20 -5 -20 -10 0 -6 -7 -6 -19 1 -28 18 -54 4 -48 -27 3 -15 0 -23 -7
-21 -6 2 -12 16 -14 30 -3 26 -6 27 -64 27 -49 0 -59 -3 -55 -15 4 -8 2 -17
-3 -20 -6 -4 -10 3 -10 14 0 19 -6 21 -70 21 -45 0 -70 -4 -70 -11 0 -8 -4 -8
-12 -2 -7 6 -58 11 -113 12 l-101 2 -11 -28 -11 -28 -1 28 -1 28 -305 -2
c-274 -1 -305 -3 -306 -18 0 -12 -2 -11 -9 4 -8 18 -9 17 -9 -7 -1 -15 4 -30
9 -33 6 -3 10 -17 10 -31 0 -17 -4 -23 -12 -18 -7 5 -29 7 -50 5 -37 -2 -38
-1 -38 30 0 38 -7 35 -13 -5 -2 -19 -11 -32 -25 -37 -21 -8 -22 -6 -22 42 0
28 4 48 9 45 5 -3 11 1 15 9 4 11 -2 15 -24 15 -16 0 -32 -5 -36 -12z m573
-20 c-3 -8 -6 -5 -6 6 -1 11 2 17 5 13 3 -3 4 -12 1 -19z m-351 -48 c0 -28 -3
-50 -7 -50 -8 0 -17 89 -10 96 12 11 16 0 17 -46z m67 20 c-3 -13 0 -20 8 -20
12 0 12 -2 0 -9 -7 -5 -10 -14 -6 -20 9 -16 35 4 36 28 0 11 2 12 6 3 3 -8 -3
-28 -12 -47 -19 -35 -45 -37 -75 -6 -13 13 -13 14 2 9 13 -6 18 2 23 43 4 27
11 47 15 44 4 -3 6 -14 3 -25z m656 -17 c-7 -21 -14 -32 -16 -25 -5 12 18 74
25 67 2 -2 -2 -21 -9 -42z m66 37 c-3 -5 -12 -10 -18 -10 -7 0 -6 4 3 10 19
12 23 12 15 0z m104 -70 c-1 -46 -5 -73 -15 -81 -8 -7 -12 -20 -8 -35 7 -26
-10 -33 -20 -8 -7 19 10 54 27 54 7 0 3 7 -7 15 -17 13 -18 18 -8 41 7 14 10
30 6 35 -9 15 5 61 16 54 5 -3 9 -37 9 -75z m-859 44 c0 -8 -4 -12 -10 -9 -5
3 -10 10 -10 16 0 5 5 9 10 9 6 0 10 -7 10 -16z m1070 6 c0 -5 -4 -10 -10 -10
-5 0 -10 5 -10 10 0 6 5 10 10 10 6 0 10 -4 10 -10z m-930 -21 c0 -6 -4 -7
-10 -4 -5 3 -10 11 -10 16 0 6 5 7 10 4 6 -3 10 -11 10 -16z m823 9 c7 -23 -5
-48 -23 -48 -16 0 -17 4 -7 30 12 32 23 38 30 18z m-233 -2 c0 -3 -4 -8 -10
-11 -5 -3 -10 -1 -10 4 0 6 5 11 10 11 6 0 10 -2 10 -4z m73 -51 c-7 -90 -47
-163 -48 -89 -1 13 5 24 12 24 6 0 15 17 18 38 16 98 25 111 18 27z m213 26
c-1 -17 -5 -26 -9 -21 -5 4 -6 17 -2 29 9 29 12 26 11 -8z m-606 4 c0 -8 -2
-15 -4 -15 -2 0 -6 7 -10 15 -3 8 -1 15 4 15 6 0 10 -7 10 -15z m957 -7 c-3
-8 -6 -5 -6 6 -1 11 2 17 5 13 3 -3 4 -12 1 -19z m-320 -20 c-3 -7 -5 -2 -5
12 0 14 2 19 5 13 2 -7 2 -19 0 -25z m210 0 c-3 -8 -6 -5 -6 6 -1 11 2 17 5
13 3 -3 4 -12 1 -19z m-857 -8 c0 -5 -4 -10 -10 -10 -5 0 -10 5 -10 10 0 6 5
10 10 10 6 0 10 -4 10 -10z m960 0 c0 -5 -4 -10 -10 -10 -5 0 -10 5 -10 10 0
6 5 10 10 10 6 0 10 -4 10 -10z m-1180 -20 c0 -5 -2 -10 -4 -10 -3 0 -8 5 -11
10 -3 6 -1 10 4 10 6 0 11 -4 11 -10z m567 -12 c-3 -8 -6 -5 -6 6 -1 11 2 17
5 13 3 -3 4 -12 1 -19z m214 -30 c-3 -24 -6 -35 -9 -25 -6 29 -38 21 -38 -10
1 -14 -5 -28 -11 -30 -7 -3 -13 2 -13 11 0 9 5 16 10 16 18 0 11 20 -7 21 -17
1 -17 2 0 6 9 2 17 11 17 20 0 12 3 13 15 3 12 -10 15 -7 21 14 10 40 20 22
15 -26z m289 45 c0 -5 -5 -15 -10 -23 -8 -12 -10 -11 -10 8 0 12 5 22 10 22 6
0 10 -3 10 -7z m40 3 c0 -3 -4 -8 -10 -11 -5 -3 -10 -1 -10 4 0 6 5 11 10 11
6 0 10 -2 10 -4z m-723 -21 c0 -8 -4 -12 -9 -9 -5 3 -6 10 -3 15 9 13 12 11
12 -6z m960 0 c0 -8 -4 -12 -9 -9 -5 3 -6 10 -3 15 9 13 12 11 12 -6z m-1412
-16 c4 -12 2 -26 -5 -33 -10 -8 -11 -5 -5 14 5 19 4 21 -4 10 -12 -18 -24 -8
-15 14 9 22 21 20 29 -5z m939 6 c-4 -8 -10 -15 -15 -15 -4 0 -6 7 -3 15 4 8
10 15 15 15 4 0 6 -7 3 -15z m295 -97 c-14 -43 -38 -51 -35 -13 0 14 7 25 13
25 7 0 16 19 20 43 7 38 8 39 11 12 2 -16 -2 -46 -9 -67z m-952 60 c-3 -8 -6
-5 -6 6 -1 11 2 17 5 13 3 -3 4 -12 1 -19z m-462 -12 c28 -12 84 -50 125 -83
77 -62 167 -150 159 -156 -2 -1 -30 -13 -61 -26 l-58 -23 -71 48 c-100 66
-193 147 -220 190 l-22 37 22 18 c31 25 66 24 126 -5z m515 -13 c0 -21 -3 -24
-9 -14 -5 8 -7 20 -4 28 8 21 13 15 13 -14z m422 -5 c-9 -9 -12 -7 -12 12 0
19 3 21 12 12 9 -9 9 -15 0 -24z m542 17 c3 -8 1 -15 -4 -15 -6 0 -10 7 -10
15 0 8 2 15 4 15 2 0 6 -7 10 -15z m-920 -10 c-4 -8 -11 -15 -16 -15 -6 0 -5
6 2 15 7 8 14 15 16 15 2 0 1 -7 -2 -15z m633 0 c0 -8 -4 -12 -9 -9 -5 3 -6
10 -3 15 9 13 12 11 12 -6z m-327 -19 c0 -3 -4 -8 -10 -11 -5 -3 -10 -1 -10 4
0 6 5 11 10 11 6 0 10 -2 10 -4z m-21 -49 c1 -5 -3 -5 -9 -2 -5 3 -10 16 -9
28 0 21 1 21 9 2 5 -11 9 -24 9 -28z m91 23 c0 -5 -5 -10 -11 -10 -5 0 -7 5
-4 10 3 6 8 10 11 10 2 0 4 -4 4 -10z m-165 -10 c3 -5 1 -10 -4 -10 -6 0 -11
5 -11 10 0 6 2 10 4 10 3 0 8 -4 11 -10z m120 0 c3 -5 1 -10 -4 -10 -6 0 -11
5 -11 10 0 6 2 10 4 10 3 0 8 -4 11 -10z m-595 -16 c0 -8 -5 -12 -10 -9 -6 4
-8 11 -5 16 9 14 15 11 15 -7z m243 -4 c-3 -11 -9 -20 -13 -20 -5 0 -6 9 -3
20 3 11 9 20 13 20 5 0 6 -9 3 -20z m1025 7 c16 -18 0 -37 -26 -31 -18 5 -20
10 -11 25 11 22 22 24 37 6z m-729 -39 c1 14 7 22 19 22 11 0 13 -3 6 -8 -15
-9 -21 -43 -11 -59 13 -21 -12 -15 -30 6 -9 11 -21 17 -26 14 -5 -3 -7 0 -3 8
3 8 9 22 12 33 6 16 9 15 20 -10 11 -26 12 -27 13 -6z m158 0 c-3 -8 -6 -5 -6
6 -1 11 2 17 5 13 3 -3 4 -12 1 -19z m-567 2 c0 -5 -4 -10 -10 -10 -5 0 -10 5
-10 10 0 6 5 10 10 10 6 0 10 -4 10 -10z m220 -10 c0 -5 -5 -10 -11 -10 -5 0
-7 5 -4 10 3 6 8 10 11 10 2 0 4 -4 4 -10z m446 -35 c-7 -38 -26 -48 -26 -14
0 24 19 63 27 55 3 -3 2 -21 -1 -41z m-629 3 c-3 -7 -5 -2 -5 12 0 14 2 19 5
13 2 -7 2 -19 0 -25z m426 6 c3 -3 3 -13 0 -21 -5 -12 -7 -12 -14 -1 -15 23
-4 40 14 22z m364 -26 c-3 -8 -6 -5 -6 6 -1 11 2 17 5 13 3 -3 4 -12 1 -19z
m-310 -10 c-3 -8 -6 -5 -6 6 -1 11 2 17 5 13 3 -3 4 -12 1 -19z m267 13 c7
-11 -14 -20 -32 -13 -11 4 -11 6 0 13 17 11 26 11 32 0z m-91 -29 c-3 -12 -10
-22 -15 -22 -5 0 -6 -4 -3 -10 3 -6 -1 -7 -9 -4 -21 8 -20 12 6 39 26 27 29
27 21 -3z m-123 8 c0 -5 -4 -10 -10 -10 -5 0 -10 5 -10 10 0 6 5 10 10 10 6 0
10 -4 10 -10z m265 -98 c-9 -46 -15 -36 -21 33 -3 37 -1 54 6 50 5 -3 11 0 12
7 0 7 3 -2 5 -21 3 -19 2 -50 -2 -69z m-1720 50 c54 -26 202 -131 293 -209
l34 -28 -50 -43 -51 -42 -106 65 c-178 109 -285 185 -297 210 -6 13 -8 35 -4
49 6 24 10 26 64 26 42 0 73 -8 117 -28z m1688 -42 c-4 -16 -9 -17 -29 -8 -26
12 -34 41 -9 32 8 -4 15 -1 15 6 0 10 3 10 14 1 8 -7 12 -20 9 -31z m-1348
-60 c3 -5 1 -10 -4 -10 -6 0 -11 5 -11 10 0 6 2 10 4 10 3 0 8 -4 11 -10z
m-502 -111 c-5 -16 -6 -16 -22 -1 -10 10 -16 22 -13 29 6 20 40 -7 35 -28z
m283 -197 c-8 -9 -19 -13 -22 -9 -4 4 1 15 12 26 23 22 33 6 10 -17z"/>
<path d="M787 2533 c-11 -10 -8 -25 3 -18 6 3 10 2 10 -4 0 -5 -4 -12 -9 -16
-10 -6 -11 -45 -1 -45 20 1 29 19 23 53 -5 36 -13 44 -26 30z"/>
<path d="M2107 2533 c-11 -10 -8 -43 3 -43 6 0 14 8 17 18 4 9 11 20 17 24 6
5 2 8 -10 8 -11 0 -24 -3 -27 -7z"/>
<path d="M32 2499 c-1 -20 -9 -42 -17 -49 -9 -7 -15 -28 -14 -49 l1 -36 8 34
c4 18 13 37 20 41 7 4 10 24 7 51 -3 41 -4 41 -5 8z"/>
<path d="M70 2521 c0 -5 -3 -18 -6 -28 -5 -16 -4 -16 10 1 18 23 20 36 6 36
-5 0 -10 -4 -10 -9z"/>
<path d="M120 2523 c0 -4 5 -15 10 -23 8 -13 10 -13 10 2 0 9 -4 20 -10 23 -5
3 -10 3 -10 -2z"/>
<path d="M290 2520 c0 -6 7 -10 15 -10 8 0 15 2 15 4 0 2 -7 6 -15 10 -8 3
-15 1 -15 -4z"/>
<path d="M612 2495 c0 -16 2 -22 5 -12 2 9 2 23 0 30 -3 6 -5 -1 -5 -18z"/>
<path d="M293 2493 c-19 -7 -16 -48 4 -64 15 -13 16 -11 10 13 -5 17 -3 28 6
31 8 3 9 8 2 15 -5 5 -16 7 -22 5z"/>
<path d="M365 2460 c-3 -5 -1 -10 4 -10 6 0 11 5 11 10 0 6 -2 10 -4 10 -3 0
-8 -4 -11 -10z"/>
<path d="M472 2440 c0 -19 2 -27 5 -17 2 9 2 25 0 35 -3 9 -5 1 -5 -18z"/>
<path d="M490 2461 c0 -6 4 -13 10 -16 6 -3 7 1 4 9 -7 18 -14 21 -14 7z"/>
<path d="M130 2419 c0 -11 5 -17 10 -14 6 3 10 13 10 21 0 8 -4 14 -10 14 -5
0 -10 -9 -10 -21z"/>
<path d="M241 2404 c0 -11 3 -14 6 -6 3 7 2 16 -1 19 -3 4 -6 -2 -5 -13z"/>
<path d="M155 2392 c-19 -13 -35 -52 -35 -82 0 -20 -5 -30 -15 -30 -8 0 -15
-5 -15 -11 0 -5 5 -7 10 -4 6 3 10 2 10 -4 0 -5 -6 -12 -12 -14 -8 -4 -7 -6 4
-6 9 -1 20 -13 26 -28 6 -21 8 -6 6 55 -1 65 1 82 12 82 8 0 14 9 14 19 0 11
6 22 13 24 6 3 8 6 2 6 -5 0 -14 -3 -20 -7z"/>
<path d="M213 2373 c-7 -3 -13 -12 -13 -20 0 -9 -8 -23 -18 -32 -13 -11 -16
-24 -12 -41 l6 -25 7 28 c4 15 12 27 17 27 12 0 10 -59 -2 -61 -4 -1 -12 -3
-18 -4 -5 -1 -15 -3 -20 -4 -7 -1 -6 -6 2 -14 10 -12 16 -11 32 5 11 10 22 18
25 18 9 0 7 73 -2 87 -4 6 -2 13 4 15 7 2 10 9 8 15 -2 5 -10 8 -16 6z"/>
<path d="M266 2365 c-9 -26 -7 -32 5 -12 6 10 9 21 6 23 -2 3 -7 -2 -11 -11z"/>
<path d="M307 2353 c-4 -3 -7 -11 -7 -17 0 -6 5 -5 12 2 6 6 9 14 7 17 -3 3
-9 2 -12 -2z"/>
<path d="M7 2343 c-4 -3 -7 -27 -7 -51 0 -44 8 -52 15 -15 2 10 4 18 5 18 1 0
4 12 6 28 3 26 -5 34 -19 20z"/>
<path d="M93 2343 c-15 -5 -18 -33 -4 -33 5 0 11 9 14 20 3 11 4 20 4 19 -1 0
-8 -3 -14 -6z"/>
<path d="M465 2310 c-3 -5 -1 -10 4 -10 6 0 11 5 11 10 0 6 -2 10 -4 10 -3 0
-8 -4 -11 -10z"/>
<path d="M340 2293 c0 -15 18 -35 23 -27 3 5 -1 15 -9 22 -8 7 -14 9 -14 5z"/>
<path d="M466 2281 c-4 -7 -5 -15 -2 -18 9 -9 19 4 14 18 -4 11 -6 11 -12 0z"/>
<path d="M34 2254 c3 -9 6 -21 6 -27 0 -8 3 -8 11 0 13 13 5 43 -12 43 -6 0
-8 -7 -5 -16z"/>
<path d="M386 2247 c3 -10 9 -15 12 -12 3 3 0 11 -7 18 -10 9 -11 8 -5 -6z"/>
<path d="M10 2240 c-12 -7 -12 -12 -3 -21 10 -10 14 -9 19 5 8 22 2 27 -16 16z"/>
<path d="M280 2230 c-13 -8 -12 -10 3 -10 9 0 17 5 17 10 0 12 -1 12 -20 0z"/>
<path d="M371 2224 c0 -11 3 -14 6 -6 3 7 2 16 -1 19 -3 4 -6 -2 -5 -13z"/>
<path d="M2280 2205 c0 -8 -4 -15 -10 -15 -5 0 -10 -14 -10 -31 0 -19 4 -28
11 -23 6 3 9 14 6 23 -4 18 17 44 27 34 3 -4 6 -2 6 4 0 6 -7 13 -15 17 -9 3
-15 0 -15 -9z"/>
<path d="M2465 2211 c-6 -11 9 -23 19 -14 9 9 7 23 -3 23 -6 0 -12 -4 -16 -9z"/>
<path d="M2218 2184 c-5 -4 -8 -19 -8 -33 0 -18 3 -22 11 -14 6 6 9 21 7 33
-1 12 -6 18 -10 14z"/>
<path d="M2315 2168 c-2 -7 -6 -35 -9 -61 -4 -48 -16 -78 -16 -42 0 14 -3 16
-11 8 -8 -8 -7 -17 2 -32 11 -17 11 -23 1 -33 -11 -11 -12 -10 -7 5 4 9 3 17
-3 17 -16 0 -22 -41 -7 -46 20 -8 35 4 35 27 0 10 6 19 14 19 8 0 16 13 18 29
2 17 0 27 -5 24 -5 -3 -7 16 -4 46 5 49 1 65 -8 39z"/>
<path d="M2455 2160 c3 -5 8 -10 11 -10 2 0 4 5 4 10 0 6 -5 10 -11 10 -5 0
-7 -4 -4 -10z"/>
<path d="M563 2140 c-1 -11 2 -20 8 -20 5 0 9 9 9 20 0 11 -4 20 -8 20 -4 0
-8 -9 -9 -20z"/>
<path d="M615 2150 c-3 -5 -1 -10 4 -10 6 0 11 5 11 10 0 6 -2 10 -4 10 -3 0
-8 -4 -11 -10z"/>
<path d="M2350 2118 c0 -9 5 -20 10 -23 13 -8 13 5 0 25 -8 13 -10 13 -10 -2z"/>
<path d="M640 2099 c0 -11 4 -18 10 -14 5 3 7 12 3 20 -7 21 -13 19 -13 -6z"/>
<path d="M2267 2109 c-9 -5 -22 -7 -27 -4 -6 3 -10 2 -10 -3 0 -6 7 -12 15
-16 8 -3 15 -1 15 4 0 5 7 7 15 4 9 -4 15 0 15 10 0 19 0 19 -23 5z"/>
<path d="M2450 2111 c0 -6 5 -13 10 -16 6 -3 10 1 10 9 0 9 -4 16 -10 16 -5 0
-10 -4 -10 -9z"/>
<path d="M707 2103 c-2 -4 -2 -15 2 -24 5 -14 8 -15 18 -4 10 10 9 16 -2 25
-7 6 -15 7 -18 3z"/>
<path d="M2520 2100 c-8 -5 -12 -11 -9 -14 2 -3 11 -1 19 4 8 5 12 11 9 14 -2
3 -11 1 -19 -4z"/>
<path d="M610 2070 c-9 -6 -10 -10 -3 -10 6 0 15 5 18 10 8 12 4 12 -15 0z"/>
<path d="M2191 2064 c0 -11 3 -14 6 -6 3 7 2 16 -1 19 -3 4 -6 -2 -5 -13z"/>
<path d="M2356 2065 c-10 -26 -7 -97 4 -90 14 9 23 71 12 90 -8 16 -9 16 -16
0z"/>
<path d="M2450 2069 c0 -5 5 -7 10 -4 6 3 10 8 10 11 0 2 -4 4 -10 4 -5 0 -10
-5 -10 -11z"/>
<path d="M2485 2060 c-8 -13 15 -24 27 -12 6 6 4 11 -6 15 -8 3 -18 2 -21 -3z"/>
<path d="M2170 2030 c0 -5 4 -10 9 -10 6 0 13 5 16 10 3 6 -1 10 -9 10 -9 0
-16 -4 -16 -10z"/>
<path d="M2530 2025 c0 -8 -4 -15 -9 -15 -5 0 -7 -10 -4 -21 5 -19 3 -20 -18
-14 -21 7 -22 6 -10 -8 7 -9 18 -15 24 -14 7 1 12 -6 12 -15 0 -9 3 -19 6 -22
3 -3 6 24 6 59 0 36 -1 65 -3 65 -2 0 -4 -7 -4 -15z"/>
<path d="M2164 1993 c-7 -13 -7 -25 1 -41 11 -20 14 -21 25 -7 7 8 19 15 26
15 16 0 16 6 4 35 -7 19 -9 18 -19 -7 -6 -16 -15 -28 -21 -28 -7 0 -8 6 0 19
18 34 4 46 -16 14z"/>
<path d="M2436 1991 c-4 -7 -5 -15 -2 -18 9 -9 19 4 14 18 -4 11 -6 11 -12 0z"/>
<path d="M2 1945 c-1 -14 3 -25 8 -25 6 0 10 11 10 25 0 14 -4 25 -8 25 -4 0
-9 -11 -10 -25z"/>
<path d="M2270 1944 c0 -14 4 -23 10 -19 6 3 10 15 10 26 0 10 -4 19 -10 19
-5 0 -10 -12 -10 -26z"/>
<path d="M49 1943 c0 -5 -2 -21 -5 -38 -3 -25 -2 -27 6 -9 5 12 13 25 19 29 6
3 11 10 11 16 0 11 -30 13 -31 2z"/>
<path d="M2331 1903 c0 -18 2 -33 7 -33 15 0 36 19 29 27 -5 4 -12 1 -17 -7
-6 -10 -10 -6 -13 16 l-4 29 -2 -32z"/>
<path d="M101 1904 c0 -11 3 -14 6 -6 3 7 2 16 -1 19 -3 4 -6 -2 -5 -13z"/>
<path d="M46 1859 c-31 -31 -37 -41 -27 -52 6 -8 9 -21 6 -29 -4 -9 0 -15 10
-15 13 0 15 7 10 36 -5 30 -2 38 15 49 20 12 21 11 15 -7 -8 -27 7 -27 31 0
12 14 14 19 5 17 -8 -2 -17 6 -20 18 -6 19 -9 18 -45 -17z"/>
<path d="M2472 1875 c0 -16 2 -22 5 -12 2 9 2 23 0 30 -3 6 -5 -1 -5 -18z"/>
<path d="M2510 1871 c0 -11 5 -23 10 -26 6 -4 10 5 10 19 0 14 -4 26 -10 26
-5 0 -10 -9 -10 -19z"/>
<path d="M2467 1820 c-3 -13 0 -20 9 -20 8 0 14 9 14 20 0 11 -4 20 -9 20 -5
0 -11 -9 -14 -20z"/>
<path d="M255 1808 c-13 -20 -17 -21 -26 -8 -9 12 -10 11 -6 -7 3 -13 -1 -24
-9 -27 -8 -3 -14 -18 -14 -35 0 -20 -6 -30 -20 -34 -11 -3 -20 -11 -19 -19 0
-10 2 -10 6 0 2 6 9 12 14 12 4 0 5 -7 2 -17 -4 -11 -3 -14 5 -9 7 4 12 1 12
-8 0 -9 4 -16 10 -16 5 0 12 28 16 63 7 56 8 59 17 34 6 -19 5 -32 -3 -41 -7
-10 -8 -16 0 -21 5 -3 10 -13 10 -21 0 -8 -4 -12 -10 -9 -5 3 -10 1 -10 -5 0
-7 5 -10 12 -8 15 5 31 73 25 111 -2 19 0 26 9 23 9 -3 11 2 8 17 -3 12 -6 28
-6 35 -2 17 -4 15 -23 -10z"/>
<path d="M102 1800 c0 -14 2 -19 5 -12 2 6 2 18 0 25 -3 6 -5 1 -5 -13z"/>
<path d="M159 1793 c-1 -1 -2 -6 -3 -10 -1 -5 -5 -14 -10 -21 -16 -26 1 -21
21 6 16 21 18 29 7 29 -8 0 -15 -2 -15 -4z"/>
<path d="M70 1765 c0 -14 2 -25 4 -25 2 0 6 11 8 25 3 14 1 25 -3 25 -5 0 -9
-11 -9 -25z"/>
<path d="M1853 1703 c-137 -64 -183 -91 -183 -104 0 -40 9 -38 227 67 75 35
139 64 143 64 4 0 13 6 19 14 13 15 5 46 -13 46 -6 -1 -93 -40 -193 -87z"/>
<path d="M2360 1781 c0 -7 6 -19 14 -26 12 -12 15 -11 19 6 3 12 3 18 0 15 -4
-3 -12 -1 -20 5 -10 9 -13 8 -13 0z"/>
<path d="M100 1760 c0 -5 5 -10 10 -10 6 0 10 5 10 10 0 6 -4 10 -10 10 -5 0
-10 -4 -10 -10z"/>
<path d="M19 1728 c4 -12 15 -22 24 -24 15 -2 15 0 0 22 -19 30 -35 31 -24 2z"/>
<path d="M2430 1740 c0 -5 5 -10 10 -10 6 0 10 5 10 10 0 6 -4 10 -10 10 -5 0
-10 -4 -10 -10z"/>
<path d="M97 1733 c-12 -12 -7 -22 8 -17 8 4 15 10 15 15 0 11 -14 12 -23 2z"/>
<path d="M2510 1721 c0 -11 -4 -22 -9 -25 -12 -8 -12 -96 0 -96 6 0 8 9 4 20
-3 11 -3 20 2 20 5 0 10 23 11 50 1 28 0 50 -3 50 -3 0 -5 -9 -5 -19z"/>
<path d="M96 1685 c4 -8 10 -15 15 -15 4 0 6 7 3 15 -4 8 -10 15 -15 15 -4 0
-6 -7 -3 -15z"/>
<path d="M2430 1689 c0 -5 5 -7 10 -4 6 3 10 8 10 11 0 2 -4 4 -10 4 -5 0 -10
-5 -10 -11z"/>
<path d="M2411 1674 c0 -11 3 -14 6 -6 3 7 2 16 -1 19 -3 4 -6 -2 -5 -13z"/>
<path d="M1170 1399 c-146 -66 -272 -127 -280 -135 -13 -12 -13 -16 0 -28 13
-13 30 -8 135 39 446 200 450 202 450 221 0 12 -8 20 -20 21 -11 1 -139 -52
-285 -118z"/>
<path d="M1149 225 c0 -72 -2 -151 -3 -177 -3 -47 -2 -48 26 -48 28 0 28 0 23
53 -30 321 -44 371 -46 172z"/>
</g>
</svg>
